<svg xmlns="http://www.w3.org/2000/svg" version="1.1" xmlns:xlink="http://www.w3.org/1999/xlink" xmlns:svgjs="http://svgjs.dev/svgjs" width="1000" height="1000" viewBox="0 0 1000 1000"><rect width="1000" height="1000" fill="#ffffff"></rect><g transform="matrix(0.7,0,0,0.7,149.57575757575756,282.1265587044535)"><svg viewBox="0 0 396 247" data-background-color="#77d4fc" preserveAspectRatio="xMidYMid meet" height="623" width="1000" xmlns="http://www.w3.org/2000/svg" xmlns:xlink="http://www.w3.org/1999/xlink"><g id="tight-bounds" transform="matrix(1,0,0,1,0.2400000000000091,-0.09999999999999432)"><svg viewBox="0 0 395.52 247.2" height="247.2" width="395.52"><g><svg></svg></g><g><svg viewBox="0 0 395.52 247.2" height="247.2" width="395.52"><g transform="matrix(1,0,0,1,39.55199999999999,97.50143275338304)"><svg viewBox="0 0 316.416 52.197134493233904" height="52.197134493233904" width="316.416"><g><svg viewBox="0 0 316.416 52.197134493233904" height="52.197134493233904" width="316.416"><g><svg viewBox="0 0 316.416 52.197134493233904" height="52.197134493233904" width="316.416"><g><svg viewBox="0 0 316.416 52.197134493233904" height="52.197134493233904" width="316.416"><g><svg viewBox="0 0 316.416 52.197134493233904" height="52.197134493233904" width="316.416" id="textblock"><g><svg viewBox="0 0 316.416 52.197134493233904" height="52.197134493233904" width="316.416"><g transform="matrix(1,0,0,1,0,0)"><svg width="316.416" viewBox="1.4500000476837158 -36.22999954223633 271.54998779296875 44.80999755859375" height="52.197134493233904" data-palette-color="#000000"><path d="M23.88-32.52L22.7-30.23Q22.48-29.85 22.23-29.66 21.98-29.48 21.58-29.48L21.58-29.48Q21.15-29.48 20.59-29.9 20.03-30.33 19.16-30.84 18.3-31.35 17.09-31.78 15.88-32.2 14.15-32.2L14.15-32.2Q12.53-32.2 11.28-31.76 10.03-31.33 9.19-30.58 8.35-29.83 7.93-28.81 7.5-27.8 7.5-26.63L7.5-26.63Q7.5-25.13 8.24-24.14 8.97-23.15 10.19-22.45 11.4-21.75 12.94-21.24 14.48-20.73 16.09-20.18 17.7-19.63 19.24-18.94 20.78-18.25 21.99-17.2 23.2-16.15 23.94-14.63 24.68-13.1 24.68-10.88L24.68-10.88Q24.68-8.53 23.88-6.46 23.08-4.4 21.54-2.88 20-1.35 17.76-0.48 15.53 0.4 12.68 0.4L12.68 0.4Q9.2 0.4 6.34-0.86 3.48-2.13 1.45-4.28L1.45-4.28 2.85-6.58Q3.05-6.85 3.34-7.04 3.63-7.23 3.98-7.23L3.98-7.23Q4.5-7.23 5.18-6.66 5.85-6.1 6.86-5.43 7.88-4.75 9.31-4.19 10.75-3.63 12.83-3.63L12.83-3.63Q14.55-3.63 15.9-4.1 17.25-4.58 18.19-5.44 19.13-6.3 19.63-7.5 20.13-8.7 20.13-10.18L20.13-10.18Q20.13-11.8 19.39-12.84 18.65-13.88 17.45-14.58 16.25-15.28 14.71-15.76 13.18-16.25 11.56-16.76 9.95-17.28 8.41-17.95 6.88-18.63 5.68-19.7 4.48-20.78 3.74-22.39 3-24 3-26.38L3-26.38Q3-28.28 3.74-30.05 4.48-31.83 5.88-33.2 7.28-34.58 9.34-35.4 11.4-36.23 14.08-36.23L14.08-36.23Q17.07-36.23 19.55-35.27 22.03-34.33 23.88-32.52L23.88-32.52ZM29.55-25.33L34-25.33 34-9.18Q34-6.3 35.32-4.73 36.65-3.15 39.32-3.15L39.32-3.15Q41.27-3.15 43-4.08 44.72-5 46.17-6.65L46.17-6.65 46.17-25.33 50.62-25.33 50.62 0 47.97 0Q47.02 0 46.77-0.93L46.77-0.93 46.42-3.65Q44.77-1.83 42.72-0.71 40.67 0.4 38.02 0.4L38.02 0.4Q35.95 0.4 34.36-0.29 32.77-0.98 31.7-2.23 30.62-3.48 30.09-5.25 29.55-7.03 29.55-9.18L29.55-9.18 29.55-25.33ZM62.4 8.58L57.95 8.58 57.95-25.33 60.59-25.33Q61.55-25.33 61.8-24.4L61.8-24.4 62.17-21.4Q63.8-23.38 65.88-24.58 67.97-25.78 70.7-25.78L70.7-25.78Q72.87-25.78 74.65-24.94 76.42-24.1 77.67-22.46 78.92-20.83 79.59-18.4 80.27-15.98 80.27-12.83L80.27-12.83Q80.27-10.03 79.52-7.61 78.77-5.2 77.37-3.44 75.97-1.68 73.93-0.66 71.9 0.35 69.34 0.35L69.34 0.35Q67 0.35 65.33-0.43 63.67-1.2 62.4-2.63L62.4-2.63 62.4 8.58ZM69.22-22.18L69.22-22.18Q67.05-22.18 65.41-21.18 63.77-20.18 62.4-18.35L62.4-18.35 62.4-6.1Q63.62-4.45 65.08-3.78 66.55-3.1 68.34-3.1L68.34-3.1Q71.87-3.1 73.77-5.63 75.67-8.15 75.67-12.83L75.67-12.83Q75.67-15.3 75.23-17.07 74.8-18.85 73.97-19.99 73.15-21.13 71.95-21.65 70.75-22.18 69.22-22.18ZM95.57-25.73L95.57-25.73Q97.84-25.73 99.77-24.96 101.69-24.2 103.09-22.76 104.49-21.33 105.28-19.21 106.07-17.1 106.07-14.4L106.07-14.4Q106.07-13.35 105.84-13 105.62-12.65 104.99-12.65L104.99-12.65 88.14-12.65Q88.19-10.25 88.79-8.47 89.39-6.7 90.44-5.51 91.49-4.33 92.94-3.74 94.39-3.15 96.19-3.15L96.19-3.15Q97.87-3.15 99.08-3.54 100.29-3.93 101.17-4.38 102.04-4.83 102.63-5.21 103.22-5.6 103.64-5.6L103.64-5.6Q104.19-5.6 104.49-5.18L104.49-5.18 105.74-3.55Q104.92-2.55 103.77-1.81 102.62-1.07 101.31-0.6 99.99-0.13 98.59 0.11 97.19 0.35 95.82 0.35L95.82 0.35Q93.19 0.35 90.98-0.54 88.77-1.43 87.16-3.14 85.54-4.85 84.64-7.38 83.74-9.9 83.74-13.18L83.74-13.18Q83.74-15.83 84.56-18.13 85.37-20.43 86.89-22.11 88.42-23.8 90.62-24.76 92.82-25.73 95.57-25.73ZM95.67-22.45L95.67-22.45Q92.44-22.45 90.59-20.59 88.74-18.73 88.29-15.43L88.29-15.43 102.07-15.43Q102.07-16.98 101.64-18.26 101.22-19.55 100.39-20.49 99.57-21.43 98.38-21.94 97.19-22.45 95.67-22.45ZM116.19 0L111.74 0 111.74-25.33 114.29-25.33Q115.02-25.33 115.29-25.05 115.57-24.78 115.67-24.1L115.67-24.1 115.97-20.15Q117.27-22.8 119.18-24.29 121.09-25.78 123.67-25.78L123.67-25.78Q124.72-25.78 125.57-25.54 126.42-25.3 127.14-24.88L127.14-24.88 126.57-21.55Q126.39-20.93 125.79-20.93L125.79-20.93Q125.44-20.93 124.72-21.16 123.99-21.4 122.69-21.4L122.69-21.4Q120.37-21.4 118.8-20.05 117.24-18.7 116.19-16.13L116.19-16.13 116.19 0ZM142.24-35.83L164.31-35.83 164.31-31.88 147.11-31.88 147.11-19.35 161.81-19.35 161.81-15.4 147.11-15.4 147.11 0 142.24 0 142.24-35.83ZM178.33-25.73L178.33-25.73Q181.11-25.73 183.35-24.8 185.58-23.88 187.15-22.18 188.71-20.48 189.55-18.06 190.38-15.65 190.38-12.68L190.38-12.68Q190.38-9.68 189.55-7.28 188.71-4.88 187.15-3.18 185.58-1.48 183.35-0.56 181.11 0.35 178.33 0.35L178.33 0.35Q175.56 0.35 173.32-0.56 171.08-1.48 169.51-3.18 167.93-4.88 167.08-7.28 166.23-9.68 166.23-12.68L166.23-12.68Q166.23-15.65 167.08-18.06 167.93-20.48 169.51-22.18 171.08-23.88 173.32-24.8 175.56-25.73 178.33-25.73ZM178.33-3.13L178.33-3.13Q182.08-3.13 183.93-5.64 185.78-8.15 185.78-12.65L185.78-12.65Q185.78-17.18 183.93-19.7 182.08-22.23 178.33-22.23L178.33-22.23Q176.43-22.23 175.03-21.58 173.63-20.93 172.7-19.7 171.76-18.48 171.3-16.69 170.83-14.9 170.83-12.65L170.83-12.65Q170.83-10.4 171.3-8.63 171.76-6.85 172.7-5.64 173.63-4.42 175.03-3.78 176.43-3.13 178.33-3.13ZM200.33 0L195.88 0 195.88-25.33 198.43-25.33Q199.16-25.33 199.43-25.05 199.71-24.78 199.81-24.1L199.81-24.1 200.11-20.15Q201.41-22.8 203.32-24.29 205.23-25.78 207.81-25.78L207.81-25.78Q208.86-25.78 209.71-25.54 210.56-25.3 211.28-24.88L211.28-24.88 210.71-21.55Q210.53-20.93 209.93-20.93L209.93-20.93Q209.58-20.93 208.86-21.16 208.13-21.4 206.83-21.4L206.83-21.4Q204.51-21.4 202.94-20.05 201.38-18.7 200.33-16.13L200.33-16.13 200.33 0ZM220.48 0L216.03 0 216.03-25.33 218.68-25.33Q219.63-25.33 219.88-24.4L219.88-24.4 220.2-21.8Q221.6-23.53 223.34-24.63 225.08-25.73 227.38-25.73L227.38-25.73Q229.95-25.73 231.54-24.3 233.13-22.88 233.83-20.45L233.83-20.45Q234.35-21.83 235.22-22.83 236.08-23.83 237.15-24.48 238.23-25.13 239.44-25.43 240.65-25.73 241.9-25.73L241.9-25.73Q243.9-25.73 245.47-25.09 247.03-24.45 248.12-23.23 249.2-22 249.78-20.21 250.35-18.43 250.35-16.13L250.35-16.13 250.35 0 245.9 0 245.9-16.13Q245.9-19.1 244.6-20.64 243.3-22.18 240.83-22.18L240.83-22.18Q239.73-22.18 238.74-21.79 237.75-21.4 237-20.65 236.25-19.9 235.82-18.76 235.38-17.63 235.38-16.13L235.38-16.13 235.38 0 230.93 0 230.93-16.13Q230.93-19.18 229.7-20.68 228.48-22.18 226.13-22.18L226.13-22.18Q224.48-22.18 223.07-21.29 221.65-20.4 220.48-18.88L220.48-18.88 220.48 0ZM272.58-22.78L271.58-21.15Q271.28-20.6 270.65-20.6L270.65-20.6Q270.28-20.6 269.8-20.88 269.33-21.15 268.64-21.49 267.95-21.83 267-22.11 266.05-22.4 264.75-22.4L264.75-22.4Q263.63-22.4 262.73-22.11 261.83-21.83 261.19-21.33 260.55-20.83 260.21-20.16 259.88-19.5 259.88-18.73L259.88-18.73Q259.88-17.75 260.44-17.1 261-16.45 261.93-15.98 262.85-15.5 264.03-15.14 265.2-14.78 266.44-14.36 267.68-13.95 268.85-13.45 270.03-12.95 270.95-12.2 271.88-11.45 272.44-10.36 273-9.28 273-7.75L273-7.75Q273-6 272.38-4.51 271.75-3.03 270.53-1.94 269.3-0.85 267.53-0.23 265.75 0.4 263.43 0.4L263.43 0.4Q260.78 0.4 258.63-0.46 256.48-1.33 254.98-2.68L254.98-2.68 256.03-4.38Q256.23-4.7 256.5-4.88 256.78-5.05 257.23-5.05L257.23-5.05Q257.68-5.05 258.18-4.7 258.68-4.35 259.39-3.93 260.1-3.5 261.11-3.15 262.13-2.8 263.65-2.8L263.65-2.8Q264.95-2.8 265.93-3.14 266.9-3.48 267.55-4.05 268.2-4.63 268.51-5.38 268.83-6.13 268.83-6.98L268.83-6.98Q268.83-8.03 268.26-8.71 267.7-9.4 266.78-9.89 265.85-10.38 264.66-10.74 263.48-11.1 262.24-11.5 261-11.9 259.81-12.41 258.63-12.93 257.7-13.7 256.78-14.48 256.21-15.61 255.65-16.75 255.65-18.38L255.65-18.38Q255.65-19.83 256.25-21.16 256.85-22.5 258-23.51 259.15-24.53 260.83-25.13 262.5-25.73 264.65-25.73L264.65-25.73Q267.15-25.73 269.14-24.94 271.13-24.15 272.58-22.78L272.58-22.78Z" opacity="1" transform="matrix(1,0,0,1,0,0)" fill="#000000" class="undefined-text-0" data-fill-palette-color="primary" id="text-0"></path></svg></g></svg></g></svg></g></svg></g></svg></g></svg></g></svg></g><g mask="url(#5942d223-eee0-4ef9-8610-b7d9a57dcea0)"><g transform="matrix(2.7094221871144426, 0, 0, 2.7094221871144426, 79.25800312513567, 1)"><svg xmlns="http://www.w3.org/2000/svg" xmlns:xlink="http://www.w3.org/1999/xlink" version="1.1" x="0" y="0" viewBox="6.613999843597412 4.820000171661377 87.4739990234375 90.4990005493164" enable-background="new 0 0 100 100" xml:space="preserve" height="90.4990005493164" width="87.4739990234375" class="icon-none" data-fill-palette-color="accent" id="none"><path fill="#000000" d="M71.257 88.855h-14.31-0.932H13.078V11.284h58.179v35.515l6.464-11.583V11.43c0-3.66-2.557-6.61-6.217-6.61H12.809c-3.659 0-6.195 2.951-6.195 6.61v77.683c0 3.659 2.536 6.206 6.195 6.206h58.695c3.66 0 6.217-2.547 6.217-6.206V67.831l-6.464 11.583V88.855z" data-fill-palette-color="accent"></path><rect x="18.619" y="21.442" fill="#000000" width="36.016" height="4.617" data-fill-palette-color="accent"></rect><rect x="18.619" y="42.682" fill="#000000" width="36.016" height="4.617" data-fill-palette-color="accent"></rect><rect x="18.619" y="32.523" fill="#000000" width="47.098" height="4.618" data-fill-palette-color="accent"></rect><rect x="18.619" y="53.764" fill="#000000" width="47.098" height="4.617" data-fill-palette-color="accent"></rect><rect x="18.619" y="63.922" fill="#000000" width="36.016" height="4.617" data-fill-palette-color="accent"></rect><polygon fill="#000000" points="87.599,28.092 85.848,31.141 85.092,32.457 91.583,36.183 92.338,34.868 94.088,31.819 " data-fill-palette-color="accent"></polygon><polygon fill="#000000" points="60.174,74.625 60.174,82.391 66.846,78.353 89.821,38.595 83.33,34.868 " data-fill-palette-color="accent"></polygon></svg></g></g></svg></g><defs><mask id="5942d223-eee0-4ef9-8610-b7d9a57dcea0"><rect width="640" height="400" fill="white"></rect><rect width="348.05760000000004" height="76.84211593848327" fill="black" x="145.97119999999998" y="161.57894203075836" id="transform-me" transform="matrix(1,0,0,1,-122.24000000000001,-76.4)"></rect></mask></defs></svg><rect width="395.52" height="247.2" fill="none" stroke="none" visibility="hidden"></rect></g></svg></g></svg>